<svg width="56" height="56" viewBox="0 0 56 56" fill="none" xmlns="http://www.w3.org/2000/svg">
<rect x="2" y="2" width="51.0255" height="51.0255" rx="13" stroke="#C8C8C8" stroke-width="4"/>
<path d="M43.3367 9.94479C43.1913 9.78424 42.9822 9.69336 42.7641 9.69336H12.4655C12.2474 9.69336 12.0384 9.78424 11.893 9.94479C11.7446 10.1053 11.6719 10.3204 11.6931 10.5385L14.4224 41.1128C14.4497 41.4339 14.6739 41.7005 14.9828 41.7914L27.3998 45.3356C27.4664 45.3568 27.5391 45.3659 27.6118 45.3659C27.6845 45.3659 27.7542 45.3568 27.8239 45.3356L40.2499 41.7914C40.5588 41.7005 40.78 41.4339 40.8103 41.1128L43.5366 10.5385C43.5578 10.3204 43.4851 10.1053 43.3367 9.94479ZM36.8026 20.4866H22.2137L22.562 24.4337H36.4512L35.4091 36.0994L27.6088 38.4561L27.533 38.4319L19.8236 36.0963L19.4025 31.3434H23.18L23.3436 33.1883L27.6542 34.091L31.8861 33.1883L32.3374 28.1961H19.1208L18.0939 16.7152H37.1388L36.8026 20.4866Z" fill="white"/>
</svg>
