<svg width="35" height="34" viewBox="0 0 35 34" fill="none" xmlns="http://www.w3.org/2000/svg">
<path d="M25.9999 0.98761H9.2964C4.68175 0.98761 0.927612 4.74285 0.927612 9.35886V24.6447C0.927612 29.2607 4.68175 33.0159 9.2964 33.0159H25.9999C30.6146 33.0159 34.3687 29.2607 34.3687 24.6447V9.35886C34.3687 4.74285 30.6146 0.98761 25.9999 0.98761ZM3.87986 9.35886C3.87986 6.3717 6.31011 3.94072 9.2964 3.94072H25.9999C28.9862 3.94072 31.4165 6.3717 31.4165 9.35886V24.6447C31.4165 27.6318 28.9862 30.0628 25.9999 30.0628H9.2964C6.31011 30.0628 3.87986 27.6318 3.87986 24.6447V9.35886Z" fill="black"/>
<path d="M17.6483 24.7866C21.9395 24.7866 25.4327 21.2943 25.4327 16.9999C25.4327 12.7055 21.9414 9.21323 17.6483 9.21323C13.3551 9.21323 9.86389 12.7055 9.86389 16.9999C9.86389 21.2943 13.3551 24.7866 17.6483 24.7866ZM17.6483 12.1682C20.3131 12.1682 22.4804 14.3362 22.4804 17.0018C22.4804 19.6674 20.3131 21.8354 17.6483 21.8354C14.9835 21.8354 12.8161 19.6674 12.8161 17.0018C12.8161 14.3362 14.9835 12.1682 17.6483 12.1682Z" fill="black"/>
<path d="M26.1532 10.4714C27.3087 10.4714 28.2506 9.5312 28.2506 8.37341C28.2506 7.21562 27.3106 6.27539 26.1532 6.27539C24.9957 6.27539 24.0558 7.21562 24.0558 8.37341C24.0558 9.5312 24.9957 10.4714 26.1532 10.4714Z" fill="black"/>
</svg>
