<svg width="56" height="56" viewBox="0 0 56 56" fill="none" xmlns="http://www.w3.org/2000/svg">
<path d="M28.4915 9C27.9592 9 27.427 9.12741 26.9676 9.38356L12.5153 17.5246C11.582 18.0511 11 19.048 11 20.1011V34.8711C11 35.9384 11.582 36.9211 12.5153 37.4476L16.3092 39.5823C18.1467 40.4646 18.802 40.4633 19.6332 40.4633C22.3603 40.4633 23.9199 38.8555 23.9199 36.0663V20.8265C23.9199 20.5989 23.7317 20.4124 23.4984 20.4124H21.6755C21.4275 20.4124 21.2511 20.5989 21.2511 20.8265V36.0524C21.2511 37.3047 19.9256 38.5282 17.7818 37.4893L13.8141 35.2547C13.6683 35.1835 13.5806 35.0276 13.5806 34.8711V20.115C13.5806 19.9442 13.6683 19.8002 13.8141 19.7148L28.2664 11.5765C28.3977 11.4912 28.5735 11.4912 28.7193 11.5765L43.1716 19.7148C43.3175 19.8002 43.4052 19.9446 43.4052 20.1011V34.8711C43.4052 35.0276 43.3171 35.1835 43.1859 35.2547L28.7193 43.4096C28.5881 43.4807 28.3977 43.4807 28.2664 43.4096L24.5465 41.261C24.4445 41.1899 24.3011 41.1763 24.1991 41.2332C23.1636 41.8025 22.9741 41.8732 22.0116 42.2005C21.7782 42.2716 21.4134 42.4135 22.1426 42.812L26.9676 45.6025C27.4343 45.8587 27.9608 46 28.4858 46C29.0253 46 29.5486 45.8587 30.0153 45.6025L44.4847 37.4476C45.418 36.9211 46 35.9384 46 34.8711V20.115C46 19.0477 45.418 18.065 44.4847 17.5385L30.0153 9.38356C29.5559 9.12741 29.0237 9 28.4915 9ZM32.3794 20.393C28.2523 20.393 25.7884 22.0995 25.7884 24.9457C25.7884 28.0338 28.2361 28.8863 32.2028 29.2705C36.9424 29.7259 37.307 30.411 37.307 31.3217C37.307 32.8871 36.0112 33.5564 32.9633 33.5564C29.1279 33.5564 28.2815 32.6158 28.0044 30.7659C27.9752 30.5666 27.8013 30.424 27.5971 30.424H25.7144C25.481 30.424 25.307 30.6108 25.307 30.8242C25.307 33.2008 26.6341 36.0301 32.9633 36.0301C37.5425 36.0301 40.1667 34.2677 40.1667 31.1939C40.1667 28.1485 38.0517 27.3358 33.6184 26.7523C29.1122 26.1831 28.6595 25.8841 28.6595 24.8595C28.6595 24.0057 29.0544 22.8833 32.3794 22.8833C35.3398 22.8833 36.4476 23.5075 36.8997 25.4571C36.9434 25.6421 37.1028 25.7851 37.307 25.7851H39.1897C39.3064 25.7851 39.407 25.7287 39.4945 25.6433C39.5674 25.5722 39.6116 25.4573 39.597 25.3293C39.3053 21.9708 37.0169 20.393 32.3794 20.393Z" fill="white"/>
<rect x="2" y="2" width="51.0255" height="51.0255" rx="13" stroke="#C8C8C8" stroke-width="4"/>
</svg>
