<svg width="56" height="56" viewBox="0 0 56 56" fill="none" xmlns="http://www.w3.org/2000/svg">
<path d="M21.1595 11C20.1921 11 19.2948 11.2149 18.5 11.6691C16.016 13.0924 15.0704 16.561 15.5715 20.8796C11.5534 22.6083 9 25.1537 9 28C9 30.8463 11.5534 33.3917 15.5715 35.1204C15.0707 39.4388 16.016 42.9076 18.5 44.3309C19.2933 44.7851 20.1905 45 21.1595 45C23.222 45 25.6058 43.9727 28 42.2101C30.3944 43.9727 32.7811 45 34.8436 45C35.811 45 36.7083 44.7851 37.5031 44.3309C39.9871 42.9076 40.9326 39.4389 40.4316 35.1204C44.4481 33.3918 47 30.8457 47 28C47 25.1537 44.4466 22.6083 40.4285 20.8796C40.9293 16.5612 39.984 13.0924 37.5 11.6691C36.7068 11.2134 35.8095 11 34.8405 11C32.778 11 30.3942 12.0273 28 13.7899C25.6056 12.0273 23.2213 11 21.1595 11ZM21.1595 13.75C22.3971 13.75 24.0337 14.403 25.8105 15.6129C24.7658 16.5914 23.7427 17.7041 22.7583 18.943C21.1617 19.1702 19.6564 19.5014 18.2619 19.9159C18.2544 19.8199 18.2367 19.7192 18.231 19.6243C18.0615 16.8272 18.6805 14.7421 19.8854 14.0507C20.2417 13.8464 20.6576 13.75 21.1595 13.75ZM34.8405 13.75C35.3408 13.75 35.7583 13.8464 36.1146 14.0507C37.3195 14.7406 37.9385 16.8272 37.769 19.6243C37.7633 19.7192 37.7456 19.8199 37.7381 19.9159C36.3427 19.5011 34.8363 19.1702 33.2386 18.943C32.2543 17.7042 31.2341 16.5913 30.1895 15.6129C31.9662 14.4032 33.6035 13.75 34.8405 13.75ZM28 17.3593C28.4292 17.747 28.8554 18.1568 29.2865 18.6053C28.8593 18.5911 28.4344 18.5716 28 18.5716C27.5666 18.5716 27.1428 18.5912 26.7166 18.6053C27.1473 18.1573 27.5712 17.7466 28 17.3593ZM28 21.3215C29.3121 21.3215 30.5557 21.3943 31.7357 21.521C32.4553 22.4918 33.1645 23.5181 33.8293 24.6608C34.4665 25.7561 35.0299 26.8772 35.527 28C35.0298 29.1235 34.4668 30.2463 33.8293 31.3423C33.1665 32.4817 32.4591 33.5014 31.7419 34.4698C30.5202 34.6024 29.267 34.6785 28 34.6785C26.6879 34.6785 25.4443 34.6057 24.2643 34.479C23.5447 33.5082 22.8355 32.485 22.1707 31.3423C21.5332 30.2463 20.9703 29.1235 20.473 28C20.97 26.8772 21.5336 25.7561 22.1707 24.6608C22.8337 23.5214 23.5407 22.4986 24.2581 21.5302C25.4798 21.3976 26.733 21.3215 28 21.3215ZM35.5146 22.1717C36.1428 22.3222 36.7467 22.4847 37.3145 22.6658C37.1858 23.2426 37.0285 23.8305 36.8506 24.4244C36.6468 24.045 36.4493 23.6643 36.229 23.2858C36.0024 22.8964 35.7508 22.5465 35.5146 22.1717ZM20.4823 22.1748C20.2469 22.5485 19.9969 22.8976 19.771 23.2858C19.5508 23.6644 19.3531 24.0449 19.1494 24.4244C18.9711 23.8292 18.8112 23.2407 18.6825 22.6628C19.2606 22.4815 19.863 22.3209 20.4823 22.1748ZM16.0755 23.6725C16.4091 25.0705 16.8719 26.5196 17.4671 27.9969C16.8732 29.4707 16.4123 30.9172 16.0786 32.3122C13.3213 30.9907 11.7708 29.3457 11.7708 28C11.7708 26.6187 13.278 25.0446 15.8034 23.7922C15.8896 23.7494 15.9874 23.7143 16.0755 23.6725ZM39.9214 23.6878C42.6787 25.0093 44.2292 26.6543 44.2292 28C44.2292 29.3813 42.722 30.9554 40.1966 32.2078C40.1104 32.2506 40.0126 32.2857 39.9245 32.3275C39.5907 30.9287 39.1317 29.4782 38.536 28C39.1292 26.5275 39.5879 25.0816 39.9214 23.6878ZM28 24.8572C26.2504 24.8572 24.8333 26.2636 24.8333 28C24.8333 29.7364 26.2504 31.1428 28 31.1428C29.7496 31.1428 31.1667 29.7364 31.1667 28C31.1667 26.2636 29.7496 24.8572 28 24.8572ZM19.1494 31.5756C19.3532 31.9551 19.5538 32.3355 19.7741 32.7142C20.0005 33.1033 20.2494 33.4537 20.4854 33.8283C19.8572 33.6778 19.2533 33.5153 18.6855 33.3342C18.8143 32.757 18.9713 32.1699 19.1494 31.5756ZM36.8506 31.5786C37.0287 32.1733 37.1889 32.7599 37.3175 33.3372C36.7394 33.5185 36.137 33.6791 35.5177 33.8252C35.7531 33.4515 36.0031 33.1024 36.229 32.7142C36.4487 32.3364 36.6473 31.9573 36.8506 31.5786ZM18.2619 36.0841C19.6573 36.4989 21.1637 36.8298 22.7614 37.0571C23.746 38.2964 24.7654 39.4114 25.8105 40.3901C24.0338 41.5997 22.397 42.2531 21.1595 42.2531C20.6592 42.2531 20.2417 42.1536 19.8854 41.9493C18.6805 41.2594 18.0615 39.1759 18.231 36.3788C18.2368 36.2829 18.2543 36.1811 18.2619 36.0841ZM37.7381 36.0841C37.7457 36.1811 37.7633 36.2829 37.769 36.3788C37.9385 39.1759 37.3195 41.2579 36.1146 41.9493C35.7583 42.1536 35.3424 42.2531 34.8405 42.2531C33.603 42.2531 31.9662 41.5999 30.1895 40.3901C31.2347 39.4113 32.2569 38.2965 33.2417 37.0571C34.8383 36.8298 36.3436 36.4986 37.7381 36.0841ZM26.7135 37.3947C27.1407 37.4089 27.5656 37.4284 28 37.4284C28.4344 37.4284 28.8593 37.4089 29.2865 37.3947C28.8554 37.8432 28.4292 38.253 28 38.6407C27.5708 38.253 27.1446 37.8432 26.7135 37.3947Z" fill="white"/>
<rect x="2" y="2" width="51.0255" height="51.0255" rx="13" stroke="#C8C8C8" stroke-width="4"/>
</svg>
