<svg width="27" height="30" viewBox="0 0 27 30" fill="none" xmlns="http://www.w3.org/2000/svg">
<path d="M26.3539 7.53685V12.6353C25.4632 12.5482 24.3057 12.3458 23.0253 11.8767C21.3535 11.2637 20.109 10.4256 19.2939 9.77674V20.0814L19.2731 20.0493C19.2863 20.2536 19.2939 20.4617 19.2939 20.6717C19.2939 25.789 15.1313 29.9548 10.0135 29.9548C4.8958 29.9548 0.733154 25.789 0.733154 20.6717C0.733154 15.5543 4.8958 11.3867 10.0135 11.3867C10.5147 11.3867 11.0064 11.4264 11.4868 11.504V16.5286C11.0254 16.364 10.5298 16.2751 10.0135 16.2751C7.59083 16.2751 5.61826 18.2464 5.61826 20.6717C5.61826 23.097 7.59083 25.0682 10.0135 25.0682C12.4362 25.0682 14.4088 23.0951 14.4088 20.6717C14.4088 20.5809 14.4069 20.4901 14.4012 20.3993V0.374451H19.4944C19.5133 0.805783 19.5303 1.24091 19.5492 1.67224C19.5833 2.52166 19.8859 3.33702 20.4135 4.00483C21.032 4.78993 21.9454 5.70179 23.2277 6.43013C24.4286 7.10929 25.5558 7.40252 26.3539 7.54062V7.53685Z" fill="black"/>
</svg>
