<svg width="30" height="30" viewBox="0 0 30 30" fill="none" xmlns="http://www.w3.org/2000/svg">
<path d="M25.9805 2.99065C25.9432 2.99183 25.906 2.99509 25.8691 3.00042H20C19.8675 2.99854 19.7359 3.02302 19.613 3.07244C19.49 3.12185 19.3781 3.19521 19.2837 3.28826C19.1893 3.3813 19.1144 3.49217 19.0632 3.61443C19.0121 3.73669 18.9858 3.86789 18.9858 4.00042C18.9858 4.13294 19.0121 4.26415 19.0632 4.3864C19.1144 4.50866 19.1893 4.61953 19.2837 4.71258C19.3781 4.80562 19.49 4.87898 19.613 4.9284C19.7359 4.97781 19.8675 5.00229 20 5.00042H23.5859L13.293 15.2934C13.197 15.3855 13.1204 15.4959 13.0676 15.618C13.0148 15.7402 12.9869 15.8716 12.9856 16.0046C12.9842 16.1377 13.0094 16.2696 13.0597 16.3928C13.11 16.516 13.1844 16.6279 13.2784 16.722C13.3725 16.8161 13.4844 16.8904 13.6076 16.9407C13.7308 16.991 13.8627 17.0162 13.9958 17.0149C14.1288 17.0135 14.2603 16.9856 14.3824 16.9328C14.5045 16.88 14.6149 16.8034 14.707 16.7074L25 6.41448V10.0004C24.9981 10.1329 25.0226 10.2645 25.072 10.3875C25.1214 10.5104 25.1948 10.6223 25.2878 10.7167C25.3809 10.8111 25.4918 10.886 25.614 10.9372C25.7363 10.9883 25.8675 11.0147 26 11.0147C26.1325 11.0147 26.2637 10.9883 26.386 10.9372C26.5082 10.886 26.6191 10.8111 26.7122 10.7167C26.8052 10.6223 26.8786 10.5104 26.928 10.3875C26.9774 10.2645 27.0019 10.1329 27 10.0004V4.12737C27.0199 3.9834 27.0082 3.83681 26.9657 3.69782C26.9232 3.55883 26.8509 3.43078 26.7538 3.32258C26.6568 3.21438 26.5373 3.12863 26.4038 3.0713C26.2702 3.01398 26.1258 2.98646 25.9805 2.99065ZM6 7.00042C4.90694 7.00042 4 7.90735 4 9.00042V24.0004C4 25.0935 4.90694 26.0004 6 26.0004H21C22.0931 26.0004 23 25.0935 23 24.0004V14.0004V11.4223L21 13.4223V16.0004V24.0004H6V9.00042H14H16H16.5781L18.5781 7.00042H16H14H6Z" fill="white"/>
</svg>
