<svg width="56" height="56" viewBox="0 0 56 56" fill="none" xmlns="http://www.w3.org/2000/svg">
<rect x="2.02148" y="2" width="51.0255" height="51.0255" rx="13" stroke="#C8C8C8" stroke-width="4"/>
<path d="M42.8661 9.64844H11.9215C10.6787 9.64844 9.66992 10.6572 9.66992 11.9V42.8413C9.66992 44.0841 10.6787 45.0929 11.9215 45.0929H42.8628C44.1056 45.0929 45.1143 44.0841 45.1143 42.8446V11.9C45.1143 10.6572 44.1056 9.64844 42.8661 9.64844ZM29.08 36.8087C29.08 40.181 27.102 41.7172 24.2143 41.7172C21.6034 41.7172 19.7211 39.9667 18.953 38.3415L21.6067 36.7361C22.1177 37.6427 22.8956 38.3415 24.0165 38.3415C25.0879 38.3415 25.7043 37.9229 25.7043 36.2944V25.6828H29.08V36.8087ZM36.4016 41.7172C33.4116 41.7172 31.7139 40.2107 30.7678 38.3415L33.2995 36.6537C33.9885 37.7811 34.7401 38.8591 36.3291 38.8591C37.6642 38.8591 38.363 38.1932 38.363 37.2702C38.363 36.1691 37.6378 35.7768 36.1708 35.134L35.3665 34.7879C33.0424 33.7989 31.4963 32.5594 31.4963 29.9354C31.4963 27.5223 33.3391 25.6828 36.2137 25.6828C38.2608 25.6828 39.7311 26.3949 40.7926 28.2607L38.2872 29.8727C37.7334 28.8805 37.14 28.4915 36.2137 28.4915C35.2709 28.4915 34.6742 29.0914 34.6742 29.8727C34.6742 30.8386 35.2709 31.2276 36.6521 31.8276L37.4565 32.1737C40.1959 33.344 41.7387 34.5406 41.7387 37.2306C41.7387 40.1283 39.4608 41.7172 36.4016 41.7172Z" fill="white"/>
</svg>
