<svg width="1440" height="742" viewBox="0 0 1440 742" fill="none" xmlns="http://www.w3.org/2000/svg">
<g filter="url(#filter0_f_110_72)">
<path d="M-211.845 120.148C-218.461 103.431 -251.423 35.4338 -211.845 -37.9851C-157.653 -138.514 25.6432 -233.961 230.631 -171.271C376.794 -126.571 728.637 -108.585 999.199 -182.566C1253.22 -252.024 1334.16 -144.727 1522.6 -70.7413C1578.09 -48.9579 1617.72 -9.18388 1646.66 35.4337C1671.52 73.7581 1676.79 203.733 1677.97 249.478C1678.91 286.075 1657.49 430.767 1646.66 498.538C1595.86 622.785 1388.5 433.591 1243.77 506.445C1148.35 554.476 953.117 401.964 736.902 433.591C619.057 450.828 512.021 390.104 411.989 318.379C341.098 267.55 181.595 222.934 9.09583 230.841C-173.237 239.199 -203.574 141.044 -211.845 120.148Z" fill="url(#paint0_linear_110_72)"/>
</g>
<defs>
<filter id="filter0_f_110_72" x="-431" y="-405" width="2309" height="1147" filterUnits="userSpaceOnUse" color-interpolation-filters="sRGB">
<feFlood flood-opacity="0" result="BackgroundImageFix"/>
<feBlend mode="normal" in="SourceGraphic" in2="BackgroundImageFix" result="shape"/>
<feGaussianBlur stdDeviation="100" result="effect1_foregroundBlur_110_72"/>
</filter>
<linearGradient id="paint0_linear_110_72" x1="127.84" y1="-22.1732" x2="1386.9" y2="482.769" gradientUnits="userSpaceOnUse">
<stop stop-color="#FC1818"/>
<stop offset="1" stop-color="#FF5B02"/>
</linearGradient>
</defs>
</svg>
